<svg width="400" height="100" viewBox="0 0 400 100" fill="none" xmlns="http://www.w3.org/2000/svg">
<rect width="400" height="100" fill="white"/>
<g filter="url(#filter0_d)">
<circle cx="50.5" cy="50.5" r="37.5" fill="#290E94"/>
</g>
<path d="M51 69.7C48.34 69.7 45.89 69.21 43.65 68.23C41.4567 67.2033 39.5433 65.8267 37.91 64.1C36.2767 62.3267 34.9933 60.2967 34.06 58.01C33.1733 55.7233 32.73 53.2733 32.73 50.66C32.73 48.0933 33.1733 45.69 34.06 43.45C34.9933 41.1633 36.2533 39.18 37.84 37.5C39.4733 35.7733 41.41 34.42 43.65 33.44C45.89 32.4133 48.3167 31.9 50.93 31.9C53.59 31.9 56.0167 32.4133 58.21 33.44C60.45 34.42 62.3633 35.7733 63.95 37.5C65.5367 39.2267 66.7733 41.21 67.66 43.45C68.5467 45.69 68.99 48.07 68.99 50.59C68.99 50.9633 68.99 51.3367 68.99 51.71C68.99 52.0833 68.9667 52.34 68.92 52.48H37.7C37.84 54.44 38.2833 56.26 39.03 57.94C39.8233 59.5733 40.8267 60.9967 42.04 62.21C43.2533 63.4233 44.63 64.38 46.17 65.08C47.7567 65.7333 49.4367 66.06 51.21 66.06C52.3767 66.06 53.5433 65.8967 54.71 65.57C55.8767 65.2433 56.95 64.8 57.93 64.24C58.91 63.68 59.7967 63.0033 60.59 62.21C61.3833 61.37 61.99 60.46 62.41 59.48L66.54 60.6C65.98 61.9533 65.1867 63.19 64.16 64.31C63.1333 65.3833 61.9433 66.34 60.59 67.18C59.2367 67.9733 57.7433 68.58 56.11 69C54.4767 69.4667 52.7733 69.7 51 69.7ZM64.44 48.84C64.3 46.88 63.8333 45.1067 63.04 43.52C62.2933 41.8867 61.3133 40.4867 60.1 39.32C58.9333 38.1533 57.5567 37.2433 55.97 36.59C54.43 35.9367 52.7733 35.61 51 35.61C49.2267 35.61 47.5467 35.9367 45.96 36.59C44.3733 37.2433 42.9733 38.1533 41.76 39.32C40.5933 40.4867 39.6367 41.8867 38.89 43.52C38.19 45.1533 37.77 46.9267 37.63 48.84H64.44Z" fill="#8C73EF"/>
<g filter="url(#filter1_d)">
<path d="M124 68.5C122.1 68.5 120.35 68.15 118.75 67.45C117.183 66.7167 115.817 65.7333 114.65 64.5C113.483 63.2333 112.567 61.7833 111.9 60.15C111.267 58.5167 110.95 56.7667 110.95 54.9C110.95 53.0667 111.267 51.35 111.9 49.75C112.567 48.1167 113.467 46.7 114.6 45.5C115.767 44.2667 117.15 43.3 118.75 42.6C120.35 41.8667 122.083 41.5 123.95 41.5C125.85 41.5 127.583 41.8667 129.15 42.6C130.75 43.3 132.117 44.2667 133.25 45.5C134.383 46.7333 135.267 48.15 135.9 49.75C136.533 51.35 136.85 53.05 136.85 54.85C136.85 55.1167 136.85 55.3833 136.85 55.65C136.85 55.9167 136.833 56.1 136.8 56.2H114.5C114.6 57.6 114.917 58.9 115.45 60.1C116.017 61.2667 116.733 62.2833 117.6 63.15C118.467 64.0167 119.45 64.7 120.55 65.2C121.683 65.6667 122.883 65.9 124.15 65.9C124.983 65.9 125.817 65.7833 126.65 65.55C127.483 65.3167 128.25 65 128.95 64.6C129.65 64.2 130.283 63.7167 130.85 63.15C131.417 62.55 131.85 61.9 132.15 61.2L135.1 62C134.7 62.9667 134.133 63.85 133.4 64.65C132.667 65.4167 131.817 66.1 130.85 66.7C129.883 67.2667 128.817 67.7 127.65 68C126.483 68.3333 125.267 68.5 124 68.5ZM133.6 53.6C133.5 52.2 133.167 50.9333 132.6 49.8C132.067 48.6333 131.367 47.6333 130.5 46.8C129.667 45.9667 128.683 45.3167 127.55 44.85C126.45 44.3833 125.267 44.15 124 44.15C122.733 44.15 121.533 44.3833 120.4 44.85C119.267 45.3167 118.267 45.9667 117.4 46.8C116.567 47.6333 115.883 48.6333 115.35 49.8C114.85 50.9667 114.55 52.2333 114.45 53.6H133.6ZM141.818 41.95L149.618 52.15L150.018 52.9L150.418 52.15L158.218 41.95H161.868L151.918 55.05L161.868 68H158.218L150.418 57.85L150.018 57.15L149.618 57.85L141.818 68H138.168L148.118 55.05L138.168 41.95H141.818ZM172.62 68.5C171.387 68.5 170.237 68.3 169.17 67.9C168.137 67.4667 167.22 66.8833 166.42 66.15C165.654 65.4167 165.054 64.5667 164.62 63.6C164.187 62.6 163.97 61.5333 163.97 60.4C163.97 59.2667 164.237 58.2167 164.77 57.25C165.304 56.2833 166.054 55.45 167.02 54.75C167.987 54.05 169.137 53.5167 170.47 53.15C171.804 52.75 173.27 52.55 174.87 52.55C176.204 52.55 177.554 52.6667 178.92 52.9C180.287 53.1333 181.504 53.4667 182.57 53.9V51.55C182.57 49.25 181.92 47.4333 180.62 46.1C179.32 44.7333 177.52 44.05 175.22 44.05C173.887 44.05 172.52 44.3167 171.12 44.85C169.72 45.3833 168.304 46.15 166.87 47.15L165.67 44.9C169.037 42.6333 172.304 41.5 175.47 41.5C178.737 41.5 181.304 42.4167 183.17 44.25C185.037 46.0833 185.97 48.6167 185.97 51.85V63.6C185.97 64.5333 186.387 65 187.22 65V68C186.654 68.1 186.22 68.15 185.92 68.15C185.054 68.15 184.37 67.9333 183.87 67.5C183.404 67.0667 183.154 66.4667 183.12 65.7L183.02 63.65C181.82 65.2167 180.304 66.4167 178.47 67.25C176.67 68.0833 174.72 68.5 172.62 68.5ZM173.42 65.9C175.187 65.9 176.804 65.5667 178.27 64.9C179.77 64.2333 180.904 63.35 181.67 62.25C181.97 61.95 182.187 61.6333 182.32 61.3C182.487 60.9333 182.57 60.6 182.57 60.3V56.05C181.437 55.6167 180.254 55.2833 179.02 55.05C177.82 54.8167 176.587 54.7 175.32 54.7C172.92 54.7 170.97 55.2 169.47 56.2C167.97 57.2 167.22 58.5167 167.22 60.15C167.22 60.95 167.37 61.7 167.67 62.4C168.004 63.1 168.437 63.7167 168.97 64.25C169.537 64.75 170.204 65.15 170.97 65.45C171.737 65.75 172.554 65.9 173.42 65.9ZM232.066 68H228.666V53.45C228.666 50.4167 228.183 48.1833 227.216 46.75C226.25 45.3167 224.816 44.6 222.916 44.6C221.916 44.6 220.966 44.7833 220.066 45.15C219.2 45.5167 218.383 46.0333 217.616 46.7C216.883 47.3667 216.233 48.1667 215.666 49.1C215.1 50 214.666 51 214.366 52.1V68H210.966V53.45C210.966 50.35 210.5 48.1 209.566 46.7C208.633 45.3 207.2 44.6 205.266 44.6C203.3 44.6 201.55 45.2833 200.016 46.65C198.483 48.0167 197.383 49.8167 196.716 52.05V68H193.316V41.95H196.416V47.85C197.483 45.85 198.883 44.3 200.616 43.2C202.35 42.0667 204.266 41.5 206.366 41.5C208.566 41.5 210.316 42.1167 211.616 43.35C212.95 44.5833 213.766 46.2 214.066 48.2C216.5 43.7333 219.85 41.5 224.116 41.5C225.583 41.5 226.816 41.7667 227.816 42.3C228.85 42.8333 229.666 43.6 230.266 44.6C230.9 45.5667 231.35 46.75 231.616 48.15C231.916 49.5167 232.066 51.05 232.066 52.75V68ZM252.564 68.5C250.364 68.5 248.414 67.95 246.714 66.85C245.047 65.7167 243.697 64.3 242.664 62.6V78.65H239.264V41.95H242.314V47C243.38 45.3667 244.764 44.05 246.464 43.05C248.164 42.0167 250.014 41.5 252.014 41.5C253.814 41.5 255.464 41.8833 256.964 42.65C258.464 43.3833 259.764 44.3833 260.864 45.65C261.964 46.8833 262.814 48.3167 263.414 49.95C264.047 51.5833 264.364 53.2667 264.364 55C264.364 56.8333 264.08 58.5667 263.514 60.2C262.947 61.8333 262.13 63.2667 261.064 64.5C260.03 65.7333 258.78 66.7167 257.314 67.45C255.88 68.15 254.297 68.5 252.564 68.5ZM251.614 65.5C253.014 65.5 254.28 65.2 255.414 64.6C256.58 64 257.564 63.2167 258.364 62.25C259.197 61.25 259.83 60.1333 260.264 58.9C260.697 57.6333 260.914 56.3333 260.914 55C260.914 53.6 260.664 52.2667 260.164 51C259.664 49.7333 258.98 48.6167 258.114 47.65C257.247 46.6833 256.214 45.9167 255.014 45.35C253.847 44.7833 252.58 44.5 251.214 44.5C250.347 44.5 249.43 44.6833 248.464 45.05C247.53 45.3833 246.647 45.85 245.814 46.45C245.014 47.0167 244.314 47.7 243.714 48.5C243.147 49.2667 242.797 50.0833 242.664 50.95V58.95C243.064 59.8833 243.564 60.75 244.164 61.55C244.797 62.35 245.497 63.05 246.264 63.65C247.064 64.2167 247.914 64.6667 248.814 65C249.714 65.3333 250.647 65.5 251.614 65.5ZM270.273 31.5H273.673V62.1C273.673 63.0667 273.94 63.8333 274.473 64.4C275.006 64.9333 275.756 65.2 276.723 65.2C277.09 65.2 277.523 65.15 278.023 65.05C278.523 64.95 278.99 64.8167 279.423 64.65L280.023 67.4C279.39 67.6667 278.606 67.8833 277.673 68.05C276.773 68.2167 275.99 68.3 275.323 68.3C273.756 68.3 272.523 67.8667 271.623 67C270.723 66.1 270.273 64.85 270.273 63.25V31.5ZM294.996 68.5C293.096 68.5 291.346 68.15 289.746 67.45C288.179 66.7167 286.813 65.7333 285.646 64.5C284.479 63.2333 283.563 61.7833 282.896 60.15C282.263 58.5167 281.946 56.7667 281.946 54.9C281.946 53.0667 282.263 51.35 282.896 49.75C283.563 48.1167 284.463 46.7 285.596 45.5C286.763 44.2667 288.146 43.3 289.746 42.6C291.346 41.8667 293.079 41.5 294.946 41.5C296.846 41.5 298.579 41.8667 300.146 42.6C301.746 43.3 303.113 44.2667 304.246 45.5C305.379 46.7333 306.263 48.15 306.896 49.75C307.529 51.35 307.846 53.05 307.846 54.85C307.846 55.1167 307.846 55.3833 307.846 55.65C307.846 55.9167 307.829 56.1 307.796 56.2H285.496C285.596 57.6 285.913 58.9 286.446 60.1C287.013 61.2667 287.729 62.2833 288.596 63.15C289.463 64.0167 290.446 64.7 291.546 65.2C292.679 65.6667 293.879 65.9 295.146 65.9C295.979 65.9 296.813 65.7833 297.646 65.55C298.479 65.3167 299.246 65 299.946 64.6C300.646 64.2 301.279 63.7167 301.846 63.15C302.413 62.55 302.846 61.9 303.146 61.2L306.096 62C305.696 62.9667 305.129 63.85 304.396 64.65C303.663 65.4167 302.813 66.1 301.846 66.7C300.879 67.2667 299.813 67.7 298.646 68C297.479 68.3333 296.263 68.5 294.996 68.5ZM304.596 53.6C304.496 52.2 304.163 50.9333 303.596 49.8C303.063 48.6333 302.363 47.6333 301.496 46.8C300.663 45.9667 299.679 45.3167 298.546 44.85C297.446 44.3833 296.263 44.15 294.996 44.15C293.729 44.15 292.529 44.3833 291.396 44.85C290.263 45.3167 289.263 45.9667 288.396 46.8C287.563 47.6333 286.879 48.6333 286.346 49.8C285.846 50.9667 285.546 52.2333 285.446 53.6H304.596ZM324.036 54.9C324.036 53.0667 324.353 51.3333 324.986 49.7C325.619 48.0667 326.503 46.65 327.636 45.45C328.803 44.2167 330.186 43.25 331.786 42.55C333.386 41.85 335.153 41.5 337.086 41.5C339.553 41.5 341.703 42.0667 343.536 43.2C345.369 44.3 346.753 45.8 347.686 47.7L344.386 48.75C343.653 47.4167 342.619 46.3833 341.286 45.65C339.986 44.8833 338.536 44.5 336.936 44.5C335.603 44.5 334.353 44.7667 333.186 45.3C332.053 45.8333 331.053 46.5667 330.186 47.5C329.353 48.4 328.686 49.4833 328.186 50.75C327.719 52.0167 327.486 53.4 327.486 54.9C327.486 56.3667 327.736 57.75 328.236 59.05C328.736 60.35 329.419 61.4833 330.286 62.45C331.153 63.3833 332.153 64.1333 333.286 64.7C334.453 65.2333 335.686 65.5 336.986 65.5C337.819 65.5 338.636 65.3833 339.436 65.15C340.269 64.9167 341.036 64.6 341.736 64.2C342.436 63.7667 343.036 63.2833 343.536 62.75C344.036 62.2167 344.386 61.65 344.586 61.05L347.936 62.05C347.569 62.9833 347.036 63.85 346.336 64.65C345.636 65.4167 344.803 66.1 343.836 66.7C342.903 67.2667 341.853 67.7 340.686 68C339.553 68.3333 338.369 68.5 337.136 68.5C335.236 68.5 333.486 68.15 331.886 67.45C330.286 66.7167 328.903 65.7333 327.736 64.5C326.569 63.2333 325.653 61.7833 324.986 60.15C324.353 58.5167 324.036 56.7667 324.036 54.9ZM364.133 68.5C362.233 68.5 360.5 68.15 358.933 67.45C357.367 66.7167 356 65.7333 354.833 64.5C353.7 63.2667 352.817 61.8333 352.183 60.2C351.55 58.5667 351.233 56.85 351.233 55.05C351.233 53.2167 351.55 51.4833 352.183 49.85C352.85 48.2167 353.75 46.7833 354.883 45.55C356.05 44.3167 357.417 43.3333 358.983 42.6C360.55 41.8667 362.267 41.5 364.133 41.5C366 41.5 367.717 41.8667 369.283 42.6C370.883 43.3333 372.25 44.3167 373.383 45.55C374.55 46.7833 375.45 48.2167 376.083 49.85C376.75 51.4833 377.083 53.2167 377.083 55.05C377.083 56.85 376.767 58.5667 376.133 60.2C375.5 61.8333 374.6 63.2667 373.433 64.5C372.3 65.7333 370.933 66.7167 369.333 67.45C367.767 68.15 366.033 68.5 364.133 68.5ZM354.683 55.1C354.683 56.5667 354.933 57.9333 355.433 59.2C355.933 60.4333 356.6 61.5333 357.433 62.5C358.3 63.4333 359.3 64.1667 360.433 64.7C361.6 65.2333 362.833 65.5 364.133 65.5C365.433 65.5 366.65 65.2333 367.783 64.7C368.95 64.1333 369.967 63.3833 370.833 62.45C371.7 61.4833 372.383 60.3667 372.883 59.1C373.383 57.8333 373.633 56.4667 373.633 55C373.633 53.5667 373.383 52.2167 372.883 50.95C372.383 49.65 371.7 48.5333 370.833 47.6C369.967 46.6333 368.95 45.8833 367.783 45.35C366.65 44.7833 365.433 44.5 364.133 44.5C362.833 44.5 361.617 44.7833 360.483 45.35C359.35 45.8833 358.35 46.6333 357.483 47.6C356.617 48.5667 355.933 49.7 355.433 51C354.933 52.2667 354.683 53.6333 354.683 55.1Z" fill="black"/>
</g>
<defs>
<filter id="filter0_d" x="8" y="3" width="95" height="95" filterUnits="userSpaceOnUse" color-interpolation-filters="sRGB">
<feFlood flood-opacity="0" result="BackgroundImageFix"/>
<feColorMatrix in="SourceAlpha" type="matrix" values="0 0 0 0 0 0 0 0 0 0 0 0 0 0 0 0 0 0 127 0"/>
<feOffset dx="5"/>
<feGaussianBlur stdDeviation="5"/>
<feColorMatrix type="matrix" values="0 0 0 0 0.548599 0 0 0 0 0.451016 0 0 0 0 0.938933 0 0 0 0.33 0"/>
<feBlend mode="normal" in2="BackgroundImageFix" result="effect1_dropShadow"/>
<feBlend mode="normal" in="SourceGraphic" in2="effect1_dropShadow" result="shape"/>
</filter>
<filter id="filter1_d" x="105.95" y="28.5" width="276.133" height="57.15" filterUnits="userSpaceOnUse" color-interpolation-filters="sRGB">
<feFlood flood-opacity="0" result="BackgroundImageFix"/>
<feColorMatrix in="SourceAlpha" type="matrix" values="0 0 0 0 0 0 0 0 0 0 0 0 0 0 0 0 0 0 127 0"/>
<feOffset dy="2"/>
<feGaussianBlur stdDeviation="2.5"/>
<feColorMatrix type="matrix" values="0 0 0 0 0.548599 0 0 0 0 0.451016 0 0 0 0 0.938933 0 0 0 0.33 0"/>
<feBlend mode="normal" in2="BackgroundImageFix" result="effect1_dropShadow"/>
<feBlend mode="normal" in="SourceGraphic" in2="effect1_dropShadow" result="shape"/>
</filter>
</defs>
</svg>
